<svg width="248" height="141" viewBox="0 0 248 141" fill="none" xmlns="http://www.w3.org/2000/svg">
<path d="M132.534 0V6.16899C124.839 6.16899 120.329 6.83233 119.002 8.159C115.553 11.6083 113.828 16.716 113.828 23.482L114.226 140.494H109.649L25.472 10.746V113.828C25.472 120.727 27.1303 125.768 30.447 128.952C31.7737 130.279 36.2843 130.942 43.979 130.942V137.111H0V130.942C7.42933 130.942 11.8073 130.345 13.134 129.151C16.8487 125.967 18.706 120.859 18.706 113.828V10.746C18.308 7.69466 16.318 6.16899 12.736 6.16899H1.592V0H41.392L107.261 102.485V23.482C107.261 16.716 105.404 11.542 101.689 7.95999C100.23 6.76599 95.8517 6.16899 88.555 6.16899V0H132.534Z" fill="white"/>
<path d="M247.515 0.111328V5.48433H242.341C238.759 5.48433 235.641 8.33666 232.988 14.0413L199.755 91.0543H190.203L156.97 10.0613C155.776 7.01 153.521 5.48433 150.204 5.48433H143.836V0.111328H190.004V5.48433H180.651C177.202 5.48433 175.477 6.74466 175.477 9.26533C175.477 9.796 175.61 10.4593 175.875 11.2553L199.755 73.3433L223.038 14.0413C223.967 11.786 224.431 9.99499 224.431 8.66832C224.431 6.54566 223.303 5.48433 221.048 5.48433H211.098V0.111328H247.515Z" fill="white"/>
</svg>
